<svg width="59" height="10" viewBox="0 0 59 10" fill="none" xmlns="http://www.w3.org/2000/svg">
<g id="Group 323">
<path id="Vector" d="M0.476013 0.73761H12.0171C13.776 0.73761 14.4257 2.30556 14.4257 3.35594C14.4146 3.94086 14.2315 4.51083 13.8975 5C14.232 5.48893 14.4152 6.05906 14.4257 6.64406C14.4257 7.68936 13.776 9.26239 12.0171 9.26239H0.476013V0.73761ZM12.0171 4.02574C12.1016 4.02574 12.3974 3.94963 12.3974 3.35594C12.3974 2.76225 12.1016 2.68613 12.0171 2.68613H2.50957V4.02574H12.0171ZM12.0171 7.31387C12.1016 7.31387 12.3974 7.23775 12.3974 6.64406C12.3974 6.05037 12.1016 5.97426 12.0171 5.97426H2.50957V7.31387H12.0171Z" fill="white"/>
<path id="Vector_2" d="M17.5054 6.46071C17.4907 6.57615 17.5023 6.69348 17.5392 6.80366C17.5761 6.91384 17.6374 7.01394 17.7184 7.09625C17.7993 7.17855 17.8977 7.24088 18.0061 7.27842C18.1145 7.31596 18.2298 7.32772 18.3433 7.31279H28.7628V9.26041H18.3433C17.978 9.27466 17.6138 9.21199 17.2734 9.07633C16.933 8.94068 16.6239 8.73496 16.3653 8.47209C16.1068 8.20922 15.9045 7.89486 15.7711 7.54874C15.6377 7.20261 15.5761 6.8322 15.5901 6.46071V3.53929C15.5761 3.1678 15.6377 2.79738 15.7711 2.45126C15.9045 2.10514 16.1068 1.79078 16.3653 1.52791C16.6239 1.26504 16.933 1.05932 17.2734 0.923668C17.6138 0.788012 17.978 0.725344 18.3433 0.739593H28.7628V2.68721H18.3433C18.2298 2.67228 18.1145 2.68404 18.0061 2.72158C17.8977 2.75912 17.7993 2.82144 17.7184 2.90375C17.6374 2.98606 17.5761 3.08616 17.5392 3.19634C17.5023 3.30652 17.4907 3.42385 17.5054 3.53929V4.04648H28.7628V5.99409H17.5054V6.46071Z" fill="white"/>
<path id="Vector_3" d="M32.2879 6.46071C32.2728 6.57615 32.2847 6.69348 32.3227 6.80366C32.3608 6.91384 32.4239 7.01394 32.5073 7.09625C32.5907 7.17855 32.6921 7.24088 32.8037 7.27842C32.9153 7.31596 33.0342 7.32772 33.1512 7.31279H43.8749V9.26041H33.1512C32.7748 9.27466 32.3995 9.21199 32.0489 9.07633C31.6982 8.94068 31.3797 8.73496 31.1134 8.47209C30.8471 8.20922 30.6387 7.89486 30.5013 7.54874C30.3638 7.20261 30.3003 6.8322 30.3148 6.46071V3.53929C30.3003 3.1678 30.3638 2.79738 30.5013 2.45126C30.6387 2.10514 30.8471 1.79078 31.1134 1.52791C31.3797 1.26504 31.6982 1.05932 32.0489 0.923668C32.3995 0.788012 32.7748 0.725344 33.1512 0.739593H43.8749V2.68721H33.1512C33.0342 2.67228 32.9153 2.68404 32.8037 2.72158C32.6921 2.75912 32.5907 2.82144 32.5073 2.90375C32.4239 2.98606 32.3608 3.08616 32.3227 3.19634C32.2847 3.30652 32.2728 3.42385 32.2879 3.53929V4.04648H43.8749V5.99409H32.2879V6.46071Z" fill="white"/>
<path id="Vector_4" d="M45.4248 7.30372H56.3073C56.3921 7.30372 56.6661 7.22761 56.6661 6.63392C56.6661 6.04023 56.3921 5.96411 56.3073 5.96411H47.7119C46.0526 5.96411 45.4547 4.39109 45.4547 3.34579C45.4547 2.30049 46.0377 0.73761 47.7119 0.73761H58.5995V2.68613H47.7119C47.6322 2.68613 47.3681 2.75717 47.3681 3.35594C47.3681 3.9547 47.6322 4.02574 47.7119 4.02574H56.3223C57.9866 4.02574 58.5995 5.59369 58.5995 6.64406C58.5995 7.69444 57.9866 9.26239 56.3223 9.26239H45.4248V7.30372Z" fill="white"/>
</g>
</svg>
